<?xml version="1.0" standalone="no"?>
<!DOCTYPE svg PUBLIC "-//W3C//DTD SVG 20010904//EN"
 "http://www.w3.org/TR/2001/REC-SVG-20010904/DTD/svg10.dtd">
<svg version="1.0" xmlns="http://www.w3.org/2000/svg"
 width="300.000000pt" height="300.000000pt" viewBox="0 0 300.000000 300.000000"
 preserveAspectRatio="xMidYMid meet">
<metadata>
Created by potrace 1.11, written by Peter Selinger 2001-2013
</metadata>
<g transform="translate(0.000000,300.000000) scale(0.100000,-0.100000)"
fill="#000000" stroke="none">
<path d="M1285 1939 c-66 -44 -127 -83 -135 -87 -8 -4 -62 -38 -120 -76 -124
-81 -258 -166 -263 -166 -2 0 -3 21 -2 48 1 26 0 53 -3 60 -3 9 -39 12 -131
12 l-127 0 -1 -146 c-1 -80 -2 -147 -4 -148 -2 -2 -47 -31 -99 -65 -52 -33
-102 -65 -110 -71 -60 -40 -96 -63 -177 -114 -51 -32 -95 -61 -98 -66 -3 -5
21 -14 52 -21 32 -7 63 -14 68 -15 6 -1 86 -19 179 -39 93 -20 178 -40 190
-44 37 -13 59 -5 136 46 84 55 304 196 407 260 38 23 73 46 78 50 6 5 35 24
65 43 30 19 94 60 141 91 l87 56 116 -73 115 -74 244 82 244 82 -61 40 c-125
80 -163 104 -233 150 -88 56 -175 111 -311 199 -57 37 -108 67 -115 66 -7 0
-66 -36 -132 -80z"/>
<path d="M2730 1713 c-118 -41 -222 -76 -230 -78 -8 -2 -187 -63 -397 -134
-210 -71 -451 -153 -534 -181 l-152 -51 -36 24 c-20 13 -58 38 -84 55 l-48 31
-87 -57 c-48 -31 -131 -84 -184 -118 -111 -70 -112 -59 7 -135 39 -24 72 -47
73 -51 2 -5 8 -8 13 -8 8 0 68 -37 264 -166 33 -21 65 -42 71 -46 7 -5 74 33
160 89 82 53 158 101 169 107 11 7 80 51 153 99 73 48 135 87 138 87 3 0 10 5
17 11 11 9 177 118 220 144 9 6 79 50 154 100 76 49 188 121 248 160 61 39
146 95 190 123 44 29 85 54 90 56 6 2 8 5 5 8 -3 2 -102 -29 -220 -69z"/>
<path d="M2343 1327 c-45 -29 -127 -81 -182 -116 -56 -35 -101 -67 -101 -70 0
-3 50 -38 111 -77 l110 -71 62 12 c34 7 155 33 268 59 113 25 208 46 212 46 4
0 7 5 7 10 0 6 -7 10 -15 10 -8 0 -15 5 -15 10 0 6 -4 10 -9 10 -6 0 -63 34
-128 76 -151 98 -215 139 -228 147 -6 3 -48 -18 -92 -46z"/>
</g>
</svg>
