<?xml version="1.0" standalone="no"?>
<!DOCTYPE svg PUBLIC "-//W3C//DTD SVG 20010904//EN"
 "http://www.w3.org/TR/2001/REC-SVG-20010904/DTD/svg10.dtd">
<svg version="1.0" xmlns="http://www.w3.org/2000/svg"
 width="300.000000pt" height="300.000000pt" viewBox="0 0 300.000000 300.000000"
 preserveAspectRatio="xMidYMid meet">
<metadata>
Created by potrace 1.11, written by Peter Selinger 2001-2013
</metadata>
<g transform="translate(0.000000,300.000000) scale(0.100000,-0.100000)"
fill="#000000" stroke="none">
<path d="M1113 1920 c-177 -116 -324 -210 -327 -210 -3 0 -6 26 -8 58 l-3 57
-127 3 -128 3 0 -150 0 -149 -250 -163 c-138 -89 -247 -166 -243 -170 13 -11
524 -121 543 -116 9 2 205 127 435 277 230 150 423 273 429 273 6 0 61 -32
121 -71 l110 -71 235 81 c129 44 238 83 241 87 6 5 -327 226 -680 453 l-27 17
-321 -209z"/>
<path d="M2190 1615 c-404 -140 -741 -255 -749 -255 -8 0 -50 23 -93 51 -44
28 -85 48 -92 46 -38 -15 -356 -231 -349 -237 32 -31 512 -334 528 -334 16 0
1464 942 1500 975 5 6 5 9 0 8 -6 0 -341 -115 -745 -254z"/>
<path d="M2252 1348 l-183 -121 111 -74 c62 -40 122 -73 134 -73 32 1 527 115
529 122 2 6 -376 257 -397 263 -6 2 -93 -51 -194 -117z"/>
</g>
</svg>
